<svg xmlns="http://www.w3.org/2000/svg" viewBox="0 0 26.97 36.54"><defs><style>.cls-1{fill:#173042;}</style></defs><g id="Layer_2" data-name="Layer 2"><g id="icons"><path class="cls-1" d="M26.47,3.78H24.68L23.84.41A.54.54,0,0,0,23.32,0H3.66a.55.55,0,0,0-.53.41L2.29,3.78H.5a.5.5,0,0,0-.5.5V6.51A.5.5,0,0,0,.5,7h26a.5.5,0,0,0,.5-.5V4.28A.5.5,0,0,0,26.47,3.78Z"/><path class="cls-1" d="M24.21,9.56H2.77a.54.54,0,0,0-.54.61L5.34,36.06a.54.54,0,0,0,.53.48H21.1a.56.56,0,0,0,.54-.48l3.1-25.89A.54.54,0,0,0,24.21,9.56ZM10.05,19.08c2.73-2.73,4.94-2.48,6.74-1a15.62,15.62,0,0,0-5.69,3.72,16.89,16.89,0,0,0-2.59,3.33C7.56,23.42,7.69,21.45,10.05,19.08Zm6.87,6.86c-2.68,2.69-4.87,2.5-6.65,1.12a14.37,14.37,0,0,1,2.6-3.55,12.62,12.62,0,0,1,5.69-3.41C19.41,21.72,19.21,23.65,16.92,25.94Z"/></g></g></svg>