<svg xmlns="http://www.w3.org/2000/svg" viewBox="0 0 25.21 41.39"><defs><style>.cls-1{fill:#173042;}</style></defs><g id="Layer_2" data-name="Layer 2"><g id="icons"><path class="cls-1" d="M12.21,1.73a1,1,0,0,0-2.08.05v8a1.25,1.25,0,1,1-2.5,0V2A1.28,1.28,0,0,0,5.07,2v7.8a1.25,1.25,0,0,1-2.5,0v-8A1,1,0,0,0,.49,1.73L0,11.37a6.47,6.47,0,0,0,2.27,5.25l0,0a6.43,6.43,0,0,1,2.24,5.71c-.81,6.43-1.38,14.79-1.38,15.86a3.18,3.18,0,0,0,6.36,0c0-1.07-.57-9.44-1.38-15.87a6.45,6.45,0,0,1,2.25-5.73,6.47,6.47,0,0,0,2.29-5.26Z"/><path class="cls-1" d="M23.93,0H23.8a1,1,0,0,0-.25.05h0a1.42,1.42,0,0,0-.41.14c-1.79.84-4.84,5.16-6,14.2a28.71,28.71,0,0,0-.06,7.17,5.73,5.73,0,0,0,2.54,4,2.23,2.23,0,0,1,1,2l-.67,11A2.64,2.64,0,0,0,23,41.36a2.71,2.71,0,0,0,2.2-2.71V1.41A1.41,1.41,0,0,0,23.93,0Z"/></g></g></svg>