<svg xmlns="http://www.w3.org/2000/svg" viewBox="0 0 36.72 36.72"><defs><style>.cls-1{fill:#173042;}</style></defs><g id="Layer_2" data-name="Layer 2"><g id="icons"><path class="cls-1" d="M36.58,23.07A40.33,40.33,0,0,0,27.51,9.21,40.24,40.24,0,0,0,13.65.14,2,2,0,0,0,11,1.37L9.42,6.15a.5.5,0,0,0,.31.63,32.72,32.72,0,0,1,12.42,7.79A32.79,32.79,0,0,1,30,27a.5.5,0,0,0,.62.31l4.78-1.6A2,2,0,0,0,36.58,23.07Z"/><path class="cls-1" d="M27.57,27.77a30.11,30.11,0,0,0-7.19-11.43A30.36,30.36,0,0,0,9,9.15a.51.51,0,0,0-.64.32L.11,34.09a2,2,0,0,0,2.53,2.53l24.61-8.21A.51.51,0,0,0,27.57,27.77ZM7.75,32.12a2,2,0,1,1,0-2.83A2,2,0,0,1,7.75,32.12ZM9,24.52a1.25,1.25,0,0,1-.88,2.13,1.28,1.28,0,0,1-.89-.36,3.77,3.77,0,0,1,0-5.31A1.27,1.27,0,0,1,9,21a1.25,1.25,0,0,1,0,1.77A1.25,1.25,0,0,0,9,24.52Zm1.59-9.37a3,3,0,1,1,0,4.24A3,3,0,0,1,10.58,15.15Zm6,13.79a2.5,2.5,0,1,1,0-3.54A2.49,2.49,0,0,1,16.59,28.94Zm5-3.28h0a1.25,1.25,0,0,1-1.21-1.29,1.3,1.3,0,0,0-.35-.89,1.26,1.26,0,0,0-.87-.39,1.24,1.24,0,0,1-1.22-1.28,1.31,1.31,0,0,1,1.28-1.22,3.76,3.76,0,0,1,3.66,3.85A1.26,1.26,0,0,1,21.57,25.66Z"/></g></g></svg>