<svg xmlns="http://www.w3.org/2000/svg" viewBox="0 0 38 28.49"><defs><style>.cls-1{fill:#173042;}</style></defs><g id="Layer_2" data-name="Layer 2"><g id="icons"><path class="cls-1" d="M36,0H8A1,1,0,0,0,7,1V2H4.76A4.77,4.77,0,0,0,0,6.76a9.08,9.08,0,0,0,9.06,9.07h.82A15.2,15.2,0,0,0,14,19.69a2.14,2.14,0,0,1,1,1.81.5.5,0,0,0,.5.5h13a.5.5,0,0,0,.5-.5,2.14,2.14,0,0,1,1-1.81A15,15,0,0,0,37,7V1A1,1,0,0,0,36,0ZM3,6.76A1.76,1.76,0,0,1,4.76,5H7V7a14.86,14.86,0,0,0,1.15,5.75A6.08,6.08,0,0,1,3,6.76ZM33.45,5.15A14.5,14.5,0,0,1,28.9,15.74a1.24,1.24,0,0,1-.86.35,1.22,1.22,0,0,1-.9-.39,1.25,1.25,0,0,1,0-1.77A12,12,0,0,0,31,5.15V4.87a1.25,1.25,0,0,1,2.5,0Z"/><path class="cls-1" d="M36,24.49H8a2,2,0,1,0,0,4H36a2,2,0,0,0,0-4Z"/></g></g></svg>