<svg xmlns="http://www.w3.org/2000/svg" viewBox="0 0 41 27.97"><defs><style>.cls-1{fill:#173042;}</style></defs><g id="Layer_2" data-name="Layer 2"><g id="icons"><path class="cls-1" d="M0,26a2,2,0,0,0,2,2H39a2,2,0,0,0,2-2V23.74H0ZM40,13.16H37.42c-.46,0-.63.12-1.42,1a6.29,6.29,0,0,1-10.3,0c-.79-.88-1-1-1.43-1s-.63.12-1.41,1a6.51,6.51,0,0,1-5.15,2.68,6.51,6.51,0,0,1-5.15-2.68c-.79-.88-1-1-1.42-1s-.63.12-1.42,1a6.51,6.51,0,0,1-5.15,2.68A6,6,0,0,1,.19,15a1.8,1.8,0,0,1-.19-.2v6.47H41V13A3.81,3.81,0,0,1,40,13.16Z"/><path class="cls-1" d="M39.62,7.1,18.12.1a2.05,2.05,0,0,0-.65-.1C8.78.05,0,2.06,0,7.55v.83a6.68,6.68,0,0,0,1.93,4.8,3.53,3.53,0,0,0,2.64,1.15c3.28,0,3.28-3.68,6.57-3.68s3.28,3.68,6.57,3.68,3.28-3.68,6.56-3.68,3.29,3.68,6.58,3.68,3.28-3.68,6.57-3.68H40a1,1,0,0,0,1-1V9A2,2,0,0,0,39.62,7.1ZM7.17,8.49l-1.35.42A1.21,1.21,0,0,1,5.44,9a1.25,1.25,0,0,1-.38-2.44L6.41,6.1a1.25,1.25,0,0,1,.76,2.39ZM13,5.38a1.26,1.26,0,0,1-1.12.69,1.24,1.24,0,0,1-.56-.13l-1.27-.63a1.25,1.25,0,1,1,1.12-2.24l1.27.63A1.27,1.27,0,0,1,13,5.38Zm5.27,4.37a1.22,1.22,0,0,1-.72.24,1.25,1.25,0,0,1-1-.52l-.83-1.15a1.25,1.25,0,0,1,2-1.46L18.58,8A1.25,1.25,0,0,1,18.29,9.75Zm1.1-5.94a1.25,1.25,0,0,1-1.17.8,1.42,1.42,0,0,1-.45-.08L16.45,4a1.25,1.25,0,1,1,.91-2.33l1.32.52A1.24,1.24,0,0,1,19.39,3.81Zm6,3.15-1.38.3a1.24,1.24,0,0,1-.27,0,1.25,1.25,0,0,1-.26-2.47l1.38-.3A1.25,1.25,0,1,1,25.43,7Zm7.75,2.63L32,10.3a1.25,1.25,0,0,1-.62.16,1.25,1.25,0,0,1-.62-2.33l1.22-.71a1.26,1.26,0,0,1,1.71.47A1.24,1.24,0,0,1,33.18,9.59Z"/></g></g></svg>