<svg xmlns="http://www.w3.org/2000/svg" viewBox="0 0 40 39.45"><defs><style>.cls-1{fill:#173042;}</style></defs><g id="Layer_2" data-name="Layer 2"><g id="icons"><path class="cls-1" d="M36.33,19.22c-.06-.79-1.21-1.53-3.27-2.13a.55.55,0,0,0-.55.14l-1.33,1.32a.54.54,0,0,0,.13.86c.34.18.53.36.53.55,0,1.11-6.11,2-13.64,2s-13.65-.9-13.65-2c0-.83,3.48-1.55,8.43-1.85a.53.53,0,0,0,.41-.23l1.38-2a.23.23,0,0,0-.19-.35C6.3,15.92.18,17.42.07,19.22-.79,32.84,6.82,39.45,18.2,39.45,28.58,39.45,37.28,31.76,36.33,19.22Z"/><path class="cls-1" d="M39.85,5,38.22,3.35a.5.5,0,0,0-.72,0L22.87,19.11a.2.2,0,0,0,.15.34h3.09a.51.51,0,0,0,.36-.15L39.85,5.69A.5.5,0,0,0,39.85,5ZM34,1.82,32.29.15a.48.48,0,0,0-.7,0L15.72,19.07a.19.19,0,0,0,.14.33c.91,0,2.5,0,3,.05a.48.48,0,0,0,.37-.17L34,2.52A.48.48,0,0,0,34,1.82Z"/></g></g></svg>