<svg xmlns="http://www.w3.org/2000/svg" viewBox="0 0 38 30"><defs><style>.cls-1{fill:#173042;}</style></defs><g id="Layer_2" data-name="Layer 2"><g id="icons"><path class="cls-1" d="M33.58,23.91A7.91,7.91,0,0,1,30.21,23a6.29,6.29,0,0,0-2.59-.71,5.26,5.26,0,0,0-.78.07,4.68,4.68,0,0,0-2.78,1.67A6.34,6.34,0,0,1,19,26.38a6.38,6.38,0,0,1-5.07-2.32,4.62,4.62,0,0,0-2.78-1.67,4.16,4.16,0,0,0-.77-.07,6.42,6.42,0,0,0-2.6.71,7.91,7.91,0,0,1-3.36.88,6,6,0,0,1-1.25-.13C6.56,28,12.38,30,19,30s12.44-2,15.84-6.22A6.91,6.91,0,0,1,33.58,23.91Z"/><path class="cls-1" d="M19,0C8.51,0,0,6.27,0,14a17.43,17.43,0,0,0,.69,5,3.15,3.15,0,0,0,2.2,2.16,4.39,4.39,0,0,0,1.52.29,5.7,5.7,0,0,0,2.36-.67,8.55,8.55,0,0,1,3.6-.92,7.25,7.25,0,0,1,1.19.1,7.06,7.06,0,0,1,4.14,2.39A4,4,0,0,0,19,23.88a4,4,0,0,0,3.3-1.57,7,7,0,0,1,4.13-2.38,7.33,7.33,0,0,1,1.2-.11,8.55,8.55,0,0,1,3.6.93,5.79,5.79,0,0,0,2.36.66,4.39,4.39,0,0,0,1.52-.29,3.15,3.15,0,0,0,2.21-2.18A17.34,17.34,0,0,0,38,14C38,6.27,29.49,0,19,0Zm4.62,4.62,1-1a1.24,1.24,0,0,1,1.76,1.76l-1,1a1.23,1.23,0,0,1-1.76,0A1.24,1.24,0,0,1,23.62,4.62ZM18,2.94l1.37-.32A1.25,1.25,0,1,1,20,5.06l-1.37.32-.29,0A1.25,1.25,0,0,1,18,2.94ZM7.27,15.67l-1.19.76a1.19,1.19,0,0,1-.67.2,1.25,1.25,0,0,1-.68-2.3l1.19-.76a1.25,1.25,0,1,1,1.35,2.1Zm1.11-5.29a1.23,1.23,0,0,1-1.76,0l-1-1A1.24,1.24,0,1,1,7.38,7.62l1,1A1.24,1.24,0,0,1,8.38,10.38Zm2.48-3.79a1.25,1.25,0,0,1-.29-1.74L11.4,3.7a1.25,1.25,0,0,1,2,1.45L12.61,6.3a1.26,1.26,0,0,1-1,.52A1.24,1.24,0,0,1,10.86,6.59Zm2.46,11.34-.21,0a1.25,1.25,0,0,1-1.23-1.05l-.23-1.39a1.25,1.25,0,0,1,2.47-.41l.23,1.39A1.25,1.25,0,0,1,13.32,17.93ZM21,19l-1.36.38a1,1,0,0,1-.34.05A1.25,1.25,0,0,1,19,17l1.37-.38A1.25,1.25,0,1,1,21,19Zm-2-6c-2.9,0-5.25-1.34-5.25-3S16.1,7,19,7s5.25,1.34,5.25,3S21.9,13,19,13Zm8.38,2.38-1,1a1.23,1.23,0,0,1-1.76,0,1.24,1.24,0,0,1,0-1.76l1-1a1.24,1.24,0,0,1,1.76,1.76Zm1.91-5.13a1.25,1.25,0,0,1,0-2.5h1.42a1.25,1.25,0,0,1,0,2.5ZM34,15l-1.36.38a1,1,0,0,1-.34,0A1.25,1.25,0,0,1,32,13l1.37-.38A1.25,1.25,0,1,1,34,15Z"/></g></g></svg>