<svg xmlns="http://www.w3.org/2000/svg" viewBox="0 0 33.33 40.12"><defs><style>.cls-1{fill:#173042;}</style></defs><g id="Layer_2" data-name="Layer 2"><g id="icons"><path class="cls-1" d="M24.62,11.45a9,9,0,0,0-4.13.33,12.8,12.8,0,0,1-7.65,0,9,9,0,0,0-4.13-.33c-6.07,1-10.21,8.23-8.19,16C2.66,35.73,8.25,41,14.33,40h0A15,15,0,0,1,19,40h0c6.07,1,11.66-4.28,13.8-12.55C34.83,19.68,30.7,12.4,24.62,11.45ZM8.69,18.13a6.93,6.93,0,0,0-1.78,7,12.63,12.63,0,0,0,1.36,3.31,1.25,1.25,0,0,1-2.14,1.29,14.8,14.8,0,0,1-1.64-4,9.41,9.41,0,0,1,2.57-9.5,1.25,1.25,0,1,1,1.63,1.89Z"/><path class="cls-1" d="M16.28,2.13A7.9,7.9,0,0,0,9.6.09a.51.51,0,0,0-.45.45,7.9,7.9,0,0,0,2,6.68,7.93,7.93,0,0,0,6.73,2,.54.54,0,0,0,.45-.39A6.8,6.8,0,0,0,16.28,2.13Z"/></g></g></svg>