<svg xmlns="http://www.w3.org/2000/svg" viewBox="0 0 33.5 36.75"><defs><style>.cls-1{fill:#173042;}</style></defs><g id="Layer_2" data-name="Layer 2"><g id="icons"><path class="cls-1" d="M31.75,27.75h-30a1,1,0,0,0-1,1v4a4,4,0,0,0,4,4h24a4,4,0,0,0,4-4v-4A1,1,0,0,0,31.75,27.75ZM17.75,0h-2a15,15,0,0,0-15,15v1.13a.87.87,0,0,0,.87.87H31.88a.87.87,0,0,0,.87-.87V15A15,15,0,0,0,17.75,0ZM9.55,9.25a1.36,1.36,0,0,1-1.5-1.16,1.36,1.36,0,0,1,1.5-1.15,1.36,1.36,0,0,1,1.5,1.15A1.36,1.36,0,0,1,9.55,9.25Zm3.6-3.7a1.36,1.36,0,0,1-1.5-1.15,1.36,1.36,0,0,1,1.5-1.15,1.36,1.36,0,0,1,1.5,1.15A1.36,1.36,0,0,1,13.15,5.55Zm3.6,3.7a1.36,1.36,0,0,1-1.5-1.16,1.36,1.36,0,0,1,1.5-1.15,1.36,1.36,0,0,1,1.5,1.15A1.36,1.36,0,0,1,16.75,9.25Zm3.6-3.7a1.36,1.36,0,0,1-1.5-1.15,1.36,1.36,0,0,1,1.5-1.15,1.36,1.36,0,0,1,1.5,1.15A1.36,1.36,0,0,1,20.35,5.55ZM24,9.25a1.36,1.36,0,0,1-1.5-1.16A1.36,1.36,0,0,1,24,6.94a1.36,1.36,0,0,1,1.5,1.15A1.36,1.36,0,0,1,24,9.25Z"/><path class="cls-1" d="M31.75,19.75a5.29,5.29,0,0,0-3.59,1.38,1.9,1.9,0,0,1-1.41.62,1.87,1.87,0,0,1-1.41-.62,5.37,5.37,0,0,0-7.19,0,1.88,1.88,0,0,1-1.41.62,1.86,1.86,0,0,1-1.4-.62,5.37,5.37,0,0,0-7.19,0,1.86,1.86,0,0,1-1.4.62,1.88,1.88,0,0,1-1.41-.62,5.31,5.31,0,0,0-3.59-1.38,1.75,1.75,0,0,0,0,3.5,1.91,1.91,0,0,1,1.41.61,5.33,5.33,0,0,0,7.18,0,1.92,1.92,0,0,1,2.81,0,5.34,5.34,0,0,0,7.19,0,1.92,1.92,0,0,1,2.81,0,5.34,5.34,0,0,0,7.19,0,1.91,1.91,0,0,1,1.41-.61,1.75,1.75,0,0,0,0-3.5Z"/></g></g></svg>