<svg xmlns="http://www.w3.org/2000/svg" viewBox="0 0 35.82 38.01"><defs><style>.cls-1{fill:#173042;}</style></defs><g id="Layer_2" data-name="Layer 2"><g id="icons"><path class="cls-1" d="M30.62,7.32h0A10.17,10.17,0,0,0,30.7,6C30.7,2.67,29.2,0,27.35,0S24,2.67,24,6c0,2.59.93,4.79,2.23,5.61a7,7,0,0,0,4.39,1.3c2.87,0,5.2-1.24,5.2-2.77S33.49,7.32,30.62,7.32Z"/><path class="cls-1" d="M25.21,12.8c-2.88-2.88-7.15-3.42-11.45-.28l5,5a1.25,1.25,0,0,1,0,1.77,1.21,1.21,0,0,1-.88.37,1.25,1.25,0,0,1-.89-.37l-5.17-5.17,0,0a51.86,51.86,0,0,0-5.62,7.35l4.31,4.31a1.27,1.27,0,0,1,0,1.77,1.28,1.28,0,0,1-.89.36,1.24,1.24,0,0,1-.88-.36L4.85,23.7C1.43,29.31-1.29,35.45.64,37.38c2.53,2.52,12.34-3,18.65-7.51l-3.81-3.81a1.25,1.25,0,0,1,1.77-1.77l4.06,4.06a28.72,28.72,0,0,0,2.53-2.18C28.75,21.26,28.53,16.11,25.21,12.8Z"/></g></g></svg>