<svg xmlns="http://www.w3.org/2000/svg" viewBox="0 0 30 35"><defs><style>.cls-1{fill:#173042;}</style></defs><g id="Layer_2" data-name="Layer 2"><g id="icons"><path class="cls-1" d="M19.5,30H3.5a.5.5,0,0,0-.5.5V33a2,2,0,0,0,2,2H18a2,2,0,0,0,2-2V30.5A.5.5,0,0,0,19.5,30Zm5-23.5H1.5A.5.5,0,0,0,1,7V25.5a2,2,0,0,0,2,2H20a2,2,0,0,0,2-2V22.45a8.94,8.94,0,0,0,8-8.88V12A5.51,5.51,0,0,0,24.5,6.5ZM27,13.57a5.94,5.94,0,0,1-5,5.85V9.5h2.5A2.5,2.5,0,0,1,27,12Z"/><path class="cls-1" d="M21,0H1A1,1,0,0,0,0,1V3.5A.5.5,0,0,0,.5,4h21a.5.5,0,0,0,.5-.5V1A1,1,0,0,0,21,0Z"/></g></g></svg>